# MagicaVoxel @ Ephtracy

# group
o 

# material
mtllib wallf.mtl
usemtl palette

# normals
vn -1 0 0
vn 1 0 0
vn 0 0 1
vn 0 0 -1
vn 0 -1 0
vn 0 1 0

# texcoords
vt 0.408203 0.5
vt 0.978516 0.5
vt 0.986328 0.5

# verts
v -1.7 -1 0.2
v -1.7 -1 -0.2
v -1.7 -0.6 0.2
v -1.7 -0.6 0.1
v -1.7 -0.6 1.78814e-007
v -1.7 -0.6 -0.0999998
v -1.7 -0.6 -0.2
v -1.7 -0.4 0.2
v -1.7 -0.4 0.1
v -1.7 -0.4 1.78814e-007
v -1.7 -0.4 -0.0999998
v -1.7 -0.4 -0.2
v -1.7 0.3 0.2
v -1.7 0.3 0.1
v -1.7 0.3 1.78814e-007
v -1.7 0.3 -0.0999998
v -1.7 0.3 -0.2
v -1.7 0.5 -0.0999998
v -1.7 0.5 -0.2
v -1.7 1 -0.0999998
v -1.7 1 -0.2
v -1.7 1.2 0.1
v -1.7 1.2 1.78814e-007
v -1.7 1.2 -0.0999998
v -1.7 1.2 -0.2
v -1.6 0.5 0.2
v -1.6 0.5 0.1
v -1.6 1.1 0.2
v -1.6 1.1 0.1
v -1 -1 0.2
v -1 -1 1.78814e-007
v -1 -1 -0.0999998
v -1 -1 -0.2
v -1 -0.6 0.2
v -1 -0.6 0.1
v -1 -0.6 1.78814e-007
v -1 -0.6 -0.0999998
v -1 -0.6 -0.2
v -0.5 -0.4 0.2
v -0.5 -0.4 0.1
v -0.5 -0.4 -0.0999998
v -0.5 -0.4 -0.2
v -0.5 0.3 0.2
v -0.5 0.3 0.1
v -0.5 0.3 -0.0999998
v -0.5 0.3 -0.2
v 0.0999998 0.5 0.2
v 0.0999998 0.5 0.1
v 0.0999998 0.5 -0.0999998
v 0.0999998 0.5 -0.2
v 0.0999998 1.1 0.2
v 0.0999998 1.1 0.1
v 0.0999998 1.1 -0.0999998
v 0.0999998 1.1 -0.2
v 0.7 -1 0.2
v 0.7 -1 1.78814e-007
v 0.7 -1 -0.0999998
v 0.7 -1 -0.2
v 0.7 -0.6 0.2
v 0.7 -0.6 0.1
v 0.7 -0.6 1.78814e-007
v 0.7 -0.6 -0.0999998
v 0.7 -0.6 -0.2
v -1.5 -0.6 -0.0999998
v -1.5 -0.6 -0.2
v -1.5 -0.4 -0.0999998
v -1.5 -0.4 -0.2
v -1.5 0.3 -0.0999998
v -1.5 0.3 -0.2
v -1.5 0.5 -0.0999998
v -1.5 0.5 -0.2
v -1.5 1.1 -0.0999998
v -1.5 1.1 -0.2
v -1.5 1.2 -0.0999998
v -1.5 1.2 -0.2
v -1.1 -1 0.2
v -1.1 -1 1.78814e-007
v -1.1 -1 -0.0999998
v -1.1 -1 -0.2
v -1.1 -0.6 0.2
v -1.1 -0.6 0.1
v -1.1 -0.6 1.78814e-007
v -1.1 -0.6 -0.0999998
v -1.1 -0.6 -0.2
v -0.6 -0.4 0.2
v -0.6 -0.4 0.1
v -0.6 -0.4 -0.0999998
v -0.6 -0.4 -0.2
v -0.6 0.3 0.2
v -0.6 0.3 0.1
v -0.6 0.3 -0.0999998
v -0.6 0.3 -0.2
v -1.19209e-007 0.5 0.2
v -1.19209e-007 0.5 0.1
v -1.19209e-007 0.5 -0.0999998
v -1.19209e-007 0.5 -0.2
v -1.19209e-007 1.1 0.2
v -1.19209e-007 1.1 0.1
v -1.19209e-007 1.1 -0.0999998
v -1.19209e-007 1.1 -0.2
v 0.6 -1 0.2
v 0.6 -1 1.78814e-007
v 0.6 -1 -0.0999998
v 0.6 -1 -0.2
v 0.6 -0.6 0.2
v 0.6 -0.6 0.1
v 0.6 -0.6 1.78814e-007
v 0.6 -0.6 -0.0999998
v 0.6 -0.6 -0.2
v 1.3 -1 0.2
v 1.3 -1 -0.2
v 1.3 -0.6 0.2
v 1.3 -0.6 0.1
v 1.3 -0.6 -0.0999998
v 1.3 -0.6 -0.2
v 1.3 -0.4 0.2
v 1.3 -0.4 0.1
v 1.3 -0.4 -0.0999998
v 1.3 -0.4 -0.2
v 1.3 0.3 0.2
v 1.3 0.3 0.1
v 1.3 0.3 -0.0999998
v 1.3 0.3 -0.2
v 1.3 0.5 0.2
v 1.3 0.5 0.1
v 1.3 0.5 -0.0999998
v 1.3 0.5 -0.2
v 1.3 1 0.1
v 1.3 1 -0.0999998
v 1.3 1.1 0.2
v 1.3 1.1 0.1
v 1.3 1.1 -0.0999998
v 1.3 1.1 -0.2
v 1.3 1.2 0.1
v 1.3 1.2 -0.0999998
v -1.7 -1 0.2
v -1.7 -0.6 0.2
v -1.7 -0.4 0.2
v -1.7 0.3 0.2
v -1.6 0.5 0.2
v -1.6 1.1 0.2
v -1.1 -1 0.2
v -1.1 -0.6 0.2
v -1 -1 0.2
v -1 -0.6 0.2
v -0.6 -0.4 0.2
v -0.6 0.3 0.2
v -0.5 -0.4 0.2
v -0.5 0.3 0.2
v -1.19209e-007 0.5 0.2
v -1.19209e-007 1.1 0.2
v 0.0999998 0.5 0.2
v 0.0999998 1.1 0.2
v 0.6 -1 0.2
v 0.6 -0.6 0.2
v 0.7 -1 0.2
v 0.7 -0.6 0.2
v 1.3 -1 0.2
v 1.3 -0.6 0.2
v 1.3 -0.4 0.2
v 1.3 0.3 0.2
v 1.3 0.5 0.2
v 1.3 1.1 0.2
v -1.7 -0.6 0.1
v -1.7 -0.4 0.1
v -1.7 0.3 0.1
v -1.7 1.2 0.1
v -1.6 0.5 0.1
v -1.6 1.1 0.1
v -1.1 -0.6 0.1
v -1 -0.6 0.1
v -0.6 -0.4 0.1
v -0.6 0.3 0.1
v -0.5 -0.4 0.1
v -0.5 0.3 0.1
v -1.19209e-007 0.5 0.1
v -1.19209e-007 1.1 0.1
v 0.0999998 0.5 0.1
v 0.0999998 1.1 0.1
v 0.6 -0.6 0.1
v 0.7 -0.6 0.1
v 1.3 -0.6 0.1
v 1.3 -0.4 0.1
v 1.3 0.3 0.1
v 1.3 0.5 0.1
v 1.3 1.1 0.1
v 1.3 1.2 0.1
v -1.1 -1 1.78814e-007
v -1.1 -0.6 1.78814e-007
v -1 -1 1.78814e-007
v -1 -0.6 1.78814e-007
v 0.6 -1 1.78814e-007
v 0.6 -0.6 1.78814e-007
v 0.7 -1 1.78814e-007
v 0.7 -0.6 1.78814e-007
v -1.5 -0.6 -0.0999998
v -1.5 -0.4 -0.0999998
v -1.5 0.3 -0.0999998
v -1.5 0.5 -0.0999998
v -1.5 1.1 -0.0999998
v -1.5 1.2 -0.0999998
v -1.1 -1 -0.0999998
v -1.1 -0.6 -0.0999998
v -1 -1 -0.0999998
v -1 -0.6 -0.0999998
v -0.6 -0.4 -0.0999998
v -0.6 0.3 -0.0999998
v -0.5 -0.4 -0.0999998
v -0.5 0.3 -0.0999998
v -1.19209e-007 0.5 -0.0999998
v -1.19209e-007 1.1 -0.0999998
v 0.0999998 0.5 -0.0999998
v 0.0999998 1.1 -0.0999998
v 0.6 -1 -0.0999998
v 0.6 -0.6 -0.0999998
v 0.7 -1 -0.0999998
v 0.7 -0.6 -0.0999998
v 1.3 -0.6 -0.0999998
v 1.3 -0.4 -0.0999998
v 1.3 0.3 -0.0999998
v 1.3 0.5 -0.0999998
v 1.3 1.1 -0.0999998
v 1.3 1.2 -0.0999998
v -1.7 -1 -0.2
v -1.7 -0.6 -0.2
v -1.7 -0.4 -0.2
v -1.7 0.3 -0.2
v -1.7 0.5 -0.2
v -1.7 1 -0.2
v -1.7 1.2 -0.2
v -1.6 0.5 -0.2
v -1.6 1 -0.2
v -1.5 -0.6 -0.2
v -1.5 -0.4 -0.2
v -1.5 0.3 -0.2
v -1.5 0.5 -0.2
v -1.5 1 -0.2
v -1.5 1.1 -0.2
v -1.5 1.2 -0.2
v -1.1 -1 -0.2
v -1.1 -0.6 -0.2
v -1 -1 -0.2
v -1 -0.6 -0.2
v -0.6 -0.4 -0.2
v -0.6 0.3 -0.2
v -0.5 -0.4 -0.2
v -0.5 0.3 -0.2
v -1.19209e-007 0.5 -0.2
v -1.19209e-007 1.1 -0.2
v 0.0999998 0.5 -0.2
v 0.0999998 1.1 -0.2
v 0.6 -1 -0.2
v 0.6 -0.6 -0.2
v 0.7 -1 -0.2
v 0.7 -0.6 -0.2
v 1.3 -1 -0.2
v 1.3 -0.6 -0.2
v 1.3 -0.4 -0.2
v 1.3 0.3 -0.2
v 1.3 0.5 -0.2
v 1.3 1.1 -0.2
v -1.7 -1 0.2
v -1.1 -1 0.2
v -1 -1 0.2
v 0.6 -1 0.2
v 0.7 -1 0.2
v 1.3 -1 0.2
v -1.1 -1 1.78814e-007
v -1 -1 1.78814e-007
v 0.6 -1 1.78814e-007
v 0.7 -1 1.78814e-007
v -1.1 -1 -0.0999998
v -1 -1 -0.0999998
v 0.6 -1 -0.0999998
v 0.7 -1 -0.0999998
v -1.7 -1 -0.2
v -1.1 -1 -0.2
v -1 -1 -0.2
v 0.6 -1 -0.2
v 0.7 -1 -0.2
v 1.3 -1 -0.2
v -1.1 -0.6 0.1
v -1 -0.6 0.1
v 0.6 -0.6 0.1
v 0.7 -0.6 0.1
v -1.1 -0.6 1.78814e-007
v -1 -0.6 1.78814e-007
v 0.6 -0.6 1.78814e-007
v 0.7 -0.6 1.78814e-007
v -1.7 -0.4 0.2
v -0.6 -0.4 0.2
v -0.5 -0.4 0.2
v 1.3 -0.4 0.2
v -1.7 -0.4 0.1
v -0.6 -0.4 0.1
v -0.5 -0.4 0.1
v 1.3 -0.4 0.1
v -1.5 -0.4 -0.0999998
v -0.6 -0.4 -0.0999998
v -0.5 -0.4 -0.0999998
v 1.3 -0.4 -0.0999998
v -1.5 -0.4 -0.2
v -0.6 -0.4 -0.2
v -0.5 -0.4 -0.2
v 1.3 -0.4 -0.2
v -1.6 0.5 0.2
v -1.19209e-007 0.5 0.2
v 0.0999998 0.5 0.2
v 1.3 0.5 0.2
v -1.6 0.5 0.1
v -1.19209e-007 0.5 0.1
v 0.0999998 0.5 0.1
v 1.3 0.5 0.1
v -1.5 0.5 -0.0999998
v -1.19209e-007 0.5 -0.0999998
v 0.0999998 0.5 -0.0999998
v 1.3 0.5 -0.0999998
v -1.5 0.5 -0.2
v -1.19209e-007 0.5 -0.2
v 0.0999998 0.5 -0.2
v 1.3 0.5 -0.2
v -1.7 -0.6 0.2
v -1.1 -0.6 0.2
v -1 -0.6 0.2
v 0.6 -0.6 0.2
v 0.7 -0.6 0.2
v 1.3 -0.6 0.2
v -1.7 -0.6 0.1
v -1.1 -0.6 0.1
v -1 -0.6 0.1
v 0.6 -0.6 0.1
v 0.7 -0.6 0.1
v 1.3 -0.6 0.1
v -1.5 -0.6 -0.0999998
v -1.1 -0.6 -0.0999998
v -1 -0.6 -0.0999998
v 0.6 -0.6 -0.0999998
v 0.7 -0.6 -0.0999998
v 1.3 -0.6 -0.0999998
v -1.5 -0.6 -0.2
v -1.1 -0.6 -0.2
v -1 -0.6 -0.2
v 0.6 -0.6 -0.2
v 0.7 -0.6 -0.2
v 1.3 -0.6 -0.2
v -1.7 0.3 0.2
v -0.6 0.3 0.2
v -0.5 0.3 0.2
v 1.3 0.3 0.2
v -1.7 0.3 0.1
v -0.6 0.3 0.1
v -0.5 0.3 0.1
v 1.3 0.3 0.1
v -1.5 0.3 -0.0999998
v -0.6 0.3 -0.0999998
v -0.5 0.3 -0.0999998
v 1.3 0.3 -0.0999998
v -1.5 0.3 -0.2
v -0.6 0.3 -0.2
v -0.5 0.3 -0.2
v 1.3 0.3 -0.2
v -1.6 1.1 0.2
v -1.19209e-007 1.1 0.2
v 0.0999998 1.1 0.2
v 1.3 1.1 0.2
v -1.6 1.1 0.1
v -1.19209e-007 1.1 0.1
v 0.0999998 1.1 0.1
v 1.3 1.1 0.1
v -1.5 1.1 -0.0999998
v -1.19209e-007 1.1 -0.0999998
v 0.0999998 1.1 -0.0999998
v 1.3 1.1 -0.0999998
v -1.5 1.1 -0.2
v -1.19209e-007 1.1 -0.2
v 0.0999998 1.1 -0.2
v 1.3 1.1 -0.2
v -1.7 1.2 0.1
v 1.3 1.2 0.1
v -1.7 1.2 1.78814e-007
v -1.5 1.2 1.78814e-007
v -1.7 1.2 -0.0999998
v -1.5 1.2 -0.0999998
v 1.3 1.2 -0.0999998
v -1.7 1.2 -0.2
v -1.5 1.2 -0.2

# faces
f 3/3/1 2/3/1 1/3/1
f 4/3/1 2/3/1 3/3/1
f 5/3/1 2/3/1 4/3/1
f 6/3/1 2/3/1 5/3/1
f 7/3/1 2/3/1 6/3/1
f 9/1/1 5/1/1 4/1/1
f 10/2/1 6/2/1 5/2/1
f 10/1/1 5/1/1 9/1/1
f 11/1/1 7/1/1 6/1/1
f 11/2/1 6/2/1 10/2/1
f 12/1/1 7/1/1 11/1/1
f 13/3/1 10/3/1 9/3/1
f 13/3/1 9/3/1 8/3/1
f 13/3/1 12/3/1 11/3/1
f 13/3/1 11/3/1 10/3/1
f 14/3/1 12/3/1 13/3/1
f 15/3/1 12/3/1 14/3/1
f 16/3/1 12/3/1 15/3/1
f 17/3/1 12/3/1 16/3/1
f 18/2/1 16/2/1 15/2/1
f 18/1/1 17/1/1 16/1/1
f 19/1/1 17/1/1 18/1/1
f 20/2/1 18/2/1 15/2/1
f 20/2/1 19/2/1 18/2/1
f 21/2/1 19/2/1 20/2/1
f 22/1/1 15/1/1 14/1/1
f 23/2/1 20/2/1 15/2/1
f 23/1/1 15/1/1 22/1/1
f 24/1/1 21/1/1 20/1/1
f 24/2/1 20/2/1 23/2/1
f 25/1/1 21/1/1 24/1/1
f 28/3/1 27/3/1 26/3/1
f 29/3/1 27/3/1 28/3/1
f 34/3/1 31/3/1 30/3/1
f 35/3/1 31/3/1 34/3/1
f 36/3/1 31/3/1 35/3/1
f 37/3/1 33/3/1 32/3/1
f 38/3/1 33/3/1 37/3/1
f 43/3/1 40/3/1 39/3/1
f 44/3/1 40/3/1 43/3/1
f 45/3/1 42/3/1 41/3/1
f 46/3/1 42/3/1 45/3/1
f 51/3/1 48/3/1 47/3/1
f 52/3/1 48/3/1 51/3/1
f 53/3/1 50/3/1 49/3/1
f 54/3/1 50/3/1 53/3/1
f 59/3/1 56/3/1 55/3/1
f 60/3/1 56/3/1 59/3/1
f 61/3/1 56/3/1 60/3/1
f 62/3/1 58/3/1 57/3/1
f 63/3/1 58/3/1 62/3/1
f 64/1/2 65/1/2 66/1/2
f 66/1/2 65/1/2 67/1/2
f 68/1/2 69/1/2 70/1/2
f 70/1/2 69/1/2 71/1/2
f 72/1/2 73/1/2 74/1/2
f 74/1/2 73/1/2 75/1/2
f 76/3/2 77/3/2 80/3/2
f 80/3/2 77/3/2 81/3/2
f 81/3/2 77/3/2 82/3/2
f 78/3/2 79/3/2 83/3/2
f 83/3/2 79/3/2 84/3/2
f 85/3/2 86/3/2 89/3/2
f 89/3/2 86/3/2 90/3/2
f 87/3/2 88/3/2 91/3/2
f 91/3/2 88/3/2 92/3/2
f 93/3/2 94/3/2 97/3/2
f 97/3/2 94/3/2 98/3/2
f 95/3/2 96/3/2 99/3/2
f 99/3/2 96/3/2 100/3/2
f 101/3/2 102/3/2 105/3/2
f 105/3/2 102/3/2 106/3/2
f 106/3/2 102/3/2 107/3/2
f 103/3/2 104/3/2 108/3/2
f 108/3/2 104/3/2 109/3/2
f 110/3/2 111/3/2 112/3/2
f 112/3/2 111/3/2 113/3/2
f 113/3/2 111/3/2 114/3/2
f 114/3/2 111/3/2 115/3/2
f 113/1/2 114/1/2 117/1/2
f 117/1/2 114/1/2 118/1/2
f 116/3/2 117/3/2 120/3/2
f 118/3/2 119/3/2 120/3/2
f 117/3/2 118/3/2 120/3/2
f 120/3/2 119/3/2 121/3/2
f 121/3/2 119/3/2 122/3/2
f 122/3/2 119/3/2 123/3/2
f 121/1/2 122/1/2 125/1/2
f 125/1/2 122/1/2 126/1/2
f 124/3/2 125/3/2 128/3/2
f 126/3/2 127/3/2 128/3/2
f 125/3/2 126/3/2 128/3/2
f 128/3/2 127/3/2 129/3/2
f 124/3/2 128/3/2 130/3/2
f 128/1/2 129/1/2 131/1/2
f 130/3/2 128/3/2 131/3/2
f 129/3/2 127/3/2 132/3/2
f 131/1/2 129/1/2 132/1/2
f 132/3/2 127/3/2 133/3/2
f 131/1/2 132/1/2 134/1/2
f 134/1/2 132/1/2 135/1/2
f 142/3/3 137/3/3 136/3/3
f 143/3/3 137/3/3 142/3/3
f 146/3/3 139/3/3 138/3/3
f 147/3/3 139/3/3 146/3/3
f 150/3/3 141/3/3 140/3/3
f 151/3/3 141/3/3 150/3/3
f 154/3/3 145/3/3 144/3/3
f 155/3/3 145/3/3 154/3/3
f 158/3/3 157/3/3 156/3/3
f 159/3/3 157/3/3 158/3/3
f 160/3/3 149/3/3 148/3/3
f 161/3/3 149/3/3 160/3/3
f 162/3/3 153/3/3 152/3/3
f 163/3/3 153/3/3 162/3/3
f 168/1/3 167/1/3 166/1/3
f 169/1/3 167/1/3 168/1/3
f 170/1/3 165/1/3 164/1/3
f 171/1/3 165/1/3 170/1/3
f 172/1/3 165/1/3 171/1/3
f 173/1/3 168/1/3 166/1/3
f 174/1/3 172/1/3 171/1/3
f 174/1/3 173/1/3 172/1/3
f 175/1/3 168/1/3 173/1/3
f 175/1/3 173/1/3 174/1/3
f 176/1/3 168/1/3 175/1/3
f 177/1/3 167/1/3 169/1/3
f 178/1/3 176/1/3 175/1/3
f 178/1/3 177/1/3 176/1/3
f 179/1/3 167/1/3 177/1/3
f 179/1/3 177/1/3 178/1/3
f 180/1/3 174/1/3 171/1/3
f 181/1/3 174/1/3 180/1/3
f 182/1/3 174/1/3 181/1/3
f 183/1/3 174/1/3 182/1/3
f 184/1/3 178/1/3 175/1/3
f 185/1/3 178/1/3 184/1/3
f 186/1/3 167/1/3 179/1/3
f 187/1/3 167/1/3 186/1/3
f 190/1/3 189/1/3 188/1/3
f 191/1/3 189/1/3 190/1/3
f 194/1/3 193/1/3 192/1/3
f 195/1/3 193/1/3 194/1/3
f 196/1/4 197/1/4 203/1/4
f 202/1/4 203/1/4 204/1/4
f 203/1/4 197/1/4 205/1/4
f 204/1/4 203/1/4 205/1/4
f 205/1/4 197/1/4 206/1/4
f 198/1/4 199/1/4 207/1/4
f 205/1/4 206/1/4 208/1/4
f 206/1/4 207/1/4 208/1/4
f 207/1/4 199/1/4 209/1/4
f 208/1/4 207/1/4 209/1/4
f 209/1/4 199/1/4 210/1/4
f 200/1/4 201/1/4 211/1/4
f 209/1/4 210/1/4 212/1/4
f 210/1/4 211/1/4 212/1/4
f 211/1/4 201/1/4 213/1/4
f 212/1/4 211/1/4 213/1/4
f 205/1/4 208/1/4 215/1/4
f 214/1/4 215/1/4 216/1/4
f 215/1/4 208/1/4 217/1/4
f 216/1/4 215/1/4 217/1/4
f 217/1/4 208/1/4 218/1/4
f 218/1/4 208/1/4 219/1/4
f 209/1/4 212/1/4 220/1/4
f 220/1/4 212/1/4 221/1/4
f 213/1/4 201/1/4 222/1/4
f 222/1/4 201/1/4 223/1/4
f 227/1/4 228/1/4 231/1/4
f 228/2/4 229/2/4 231/2/4
f 229/1/4 230/1/4 232/1/4
f 231/2/4 229/2/4 232/2/4
f 224/3/4 225/3/4 233/3/4
f 225/1/4 226/1/4 233/1/4
f 226/3/4 227/3/4 234/3/4
f 233/1/4 226/1/4 234/1/4
f 227/1/4 231/1/4 235/1/4
f 234/3/4 227/3/4 235/3/4
f 231/3/4 232/3/4 236/3/4
f 235/1/4 231/1/4 236/1/4
f 232/1/4 230/1/4 237/1/4
f 236/3/4 232/3/4 237/3/4
f 237/1/4 230/1/4 238/1/4
f 238/1/4 230/1/4 239/1/4
f 224/3/4 233/3/4 240/3/4
f 240/3/4 233/3/4 241/3/4
f 234/3/4 235/3/4 244/3/4
f 244/3/4 235/3/4 245/3/4
f 237/3/4 238/3/4 248/3/4
f 236/3/4 237/3/4 248/3/4
f 248/3/4 238/3/4 249/3/4
f 242/3/4 243/3/4 252/3/4
f 252/3/4 243/3/4 253/3/4
f 254/3/4 255/3/4 256/3/4
f 256/3/4 255/3/4 257/3/4
f 246/3/4 247/3/4 258/3/4
f 258/3/4 247/3/4 259/3/4
f 250/3/4 251/3/4 260/3/4
f 260/3/4 251/3/4 261/3/4
f 268/3/5 263/3/5 262/3/5
f 269/3/5 265/3/5 264/3/5
f 270/3/5 265/3/5 269/3/5
f 271/3/5 267/3/5 266/3/5
f 272/3/5 268/3/5 262/3/5
f 272/1/5 269/1/5 268/1/5
f 273/3/5 270/3/5 269/3/5
f 273/1/5 269/1/5 272/1/5
f 274/1/5 271/1/5 270/1/5
f 274/3/5 270/3/5 273/3/5
f 275/3/5 267/3/5 271/3/5
f 275/1/5 271/1/5 274/1/5
f 276/3/5 272/3/5 262/3/5
f 277/3/5 272/3/5 276/3/5
f 278/3/5 274/3/5 273/3/5
f 279/3/5 274/3/5 278/3/5
f 280/3/5 267/3/5 275/3/5
f 281/3/5 267/3/5 280/3/5
f 286/1/5 283/1/5 282/1/5
f 287/1/5 283/1/5 286/1/5
f 288/1/5 285/1/5 284/1/5
f 289/1/5 285/1/5 288/1/5
f 294/3/5 291/3/5 290/3/5
f 295/3/5 291/3/5 294/3/5
f 296/3/5 293/3/5 292/3/5
f 297/3/5 293/3/5 296/3/5
f 302/3/5 299/3/5 298/3/5
f 303/3/5 299/3/5 302/3/5
f 304/3/5 301/3/5 300/3/5
f 305/3/5 301/3/5 304/3/5
f 310/3/5 307/3/5 306/3/5
f 311/3/5 307/3/5 310/3/5
f 312/3/5 309/3/5 308/3/5
f 313/3/5 309/3/5 312/3/5
f 318/3/5 315/3/5 314/3/5
f 319/3/5 315/3/5 318/3/5
f 320/3/5 317/3/5 316/3/5
f 321/3/5 317/3/5 320/3/5
f 322/3/6 323/3/6 328/3/6
f 328/3/6 323/3/6 329/3/6
f 324/3/6 325/3/6 330/3/6
f 330/3/6 325/3/6 331/3/6
f 326/3/6 327/3/6 332/3/6
f 332/3/6 327/3/6 333/3/6
f 334/3/6 335/3/6 340/3/6
f 340/3/6 335/3/6 341/3/6
f 336/3/6 337/3/6 342/3/6
f 342/3/6 337/3/6 343/3/6
f 338/3/6 339/3/6 344/3/6
f 344/3/6 339/3/6 345/3/6
f 346/3/6 347/3/6 350/3/6
f 350/3/6 347/3/6 351/3/6
f 348/3/6 349/3/6 352/3/6
f 352/3/6 349/3/6 353/3/6
f 354/3/6 355/3/6 358/3/6
f 358/3/6 355/3/6 359/3/6
f 356/3/6 357/3/6 360/3/6
f 360/3/6 357/3/6 361/3/6
f 362/3/6 363/3/6 366/3/6
f 366/3/6 363/3/6 367/3/6
f 364/3/6 365/3/6 368/3/6
f 368/3/6 365/3/6 369/3/6
f 370/3/6 371/3/6 374/3/6
f 374/3/6 371/3/6 375/3/6
f 372/3/6 373/3/6 376/3/6
f 376/3/6 373/3/6 377/3/6
f 378/1/6 379/1/6 380/1/6
f 380/1/6 379/1/6 381/1/6
f 380/2/6 381/2/6 382/2/6
f 381/1/6 379/1/6 383/1/6
f 382/2/6 381/2/6 383/2/6
f 383/1/6 379/1/6 384/1/6
f 382/1/6 383/1/6 385/1/6
f 385/1/6 383/1/6 386/1/6
